<svg xmlns="http://www.w3.org/2000/svg" viewBox="0 0 24 24" id="RightArrow"><g data-name="Layer 2" fill="#80078b" class="color000000 svgShape"><g data-name="arrowhead-right" fill="#80078b" class="color000000 svgShape"><path d="m18.78 11.37-4.78-6a1 1 0 0 0-1.41-.15 1 1 0 0 0-.15 1.41L16.71 12l-4.48 5.37a1 1 0 0 0 .13 1.41A1 1 0 0 0 13 19a1 1 0 0 0 .77-.36l5-6a1 1 0 0 0 .01-1.27z" fill="#80078b" class="color000000 svgShape"></path><path d="M7 5.37a1 1 0 0 0-1.61 1.26L9.71 12l-4.48 5.36a1 1 0 0 0 .13 1.41A1 1 0 0 0 6 19a1 1 0 0 0 .77-.36l5-6a1 1 0 0 0 0-1.27z" fill="#80078b" class="color000000 svgShape"></path></g></g></svg>